<?xml version="1.0" encoding="UTF-8"?>
<svg width="348px" height="65px" viewBox="0 0 348 65" version="1.1" xmlns="http://www.w3.org/2000/svg" xmlns:xlink="http://www.w3.org/1999/xlink">
    <title>ASTRAL_LOGO</title>
    <defs>
        <linearGradient x1="-3.8783267e-14%" y1="0.300074341%" x2="145.521684%" y2="50%" id="linearGradient-1">
            <stop stop-color="#FF4D4D" offset="0%"></stop>
            <stop stop-color="#FF4DB7" offset="34.6290428%"></stop>
            <stop stop-color="#4DEBFF" offset="100%"></stop>
        </linearGradient>
        <linearGradient x1="10.1331933%" y1="5.46414178e-14%" x2="126.16289%" y2="50%" id="linearGradient-2">
            <stop stop-color="#FF4D4D" offset="0%"></stop>
            <stop stop-color="#FF4DB7" offset="34.6290428%"></stop>
            <stop stop-color="#4DEBFF" offset="100%"></stop>
        </linearGradient>
        <linearGradient x1="8.40554831%" y1="5.46414178e-14%" x2="129.463442%" y2="50%" id="linearGradient-3">
            <stop stop-color="#FF4D4D" offset="0%"></stop>
            <stop stop-color="#FF4DB7" offset="34.6290428%"></stop>
            <stop stop-color="#4DEBFF" offset="100%"></stop>
        </linearGradient>
        <linearGradient x1="6.30450701%" y1="5.46414178e-14%" x2="133.477342%" y2="50%" id="linearGradient-4">
            <stop stop-color="#FF4D4D" offset="0%"></stop>
            <stop stop-color="#FF4DB7" offset="34.6290428%"></stop>
            <stop stop-color="#4DEBFF" offset="100%"></stop>
        </linearGradient>
        <linearGradient x1="18.6808316%" y1="5.46414178e-14%" x2="109.833194%" y2="50%" id="linearGradient-5">
            <stop stop-color="#FF4D4D" offset="0%"></stop>
            <stop stop-color="#FF4DB7" offset="34.6290428%"></stop>
            <stop stop-color="#4DEBFF" offset="100%"></stop>
        </linearGradient>
    </defs>
    <g id="Page-1" stroke="none" stroke-width="1" fill="none" fill-rule="evenodd">
        <g id="Artboard" transform="translate(-140.000000, -355.000000)" fill-rule="nonzero">
            <g id="ASTRAL_LOGO" transform="translate(140.642578, 355.964844)">
                <path d="M10.0058594,6.95703125 C11.1992188,6.19205729 12.5455729,5.49593099 14.0449219,4.86865234 C15.5442708,4.2413737 17.1277669,3.71354167 18.7954102,3.28515625 C20.4630534,2.85677083 22.1918945,2.52783203 23.9819336,2.29833984 C25.7719727,2.06884766 27.5696615,1.95410156 29.375,1.95410156 C31.7617188,1.95410156 34.1254883,2.16829427 36.4663086,2.59667969 C38.8071289,3.0250651 40.9414062,3.69824219 42.8691406,4.61621094 C44.796875,5.53417969 46.4492188,6.71988932 47.8261719,8.17333984 C49.203125,9.62679036 50.1363932,11.3632812 50.6259766,13.3828125 L61.0908203,56.6650391 C59.6832682,58.4703776 57.7096354,59.9544271 55.1699219,61.1171875 C52.6302083,62.2799479 49.4173177,62.8613281 45.53125,62.8613281 C43.8177083,62.8613281 42.211263,62.7083333 40.7119141,62.4023438 C39.2125651,62.0963542 37.8891602,61.6450195 36.7416992,61.0483398 C35.5942383,60.4516602 34.6456706,59.7019857 33.8959961,58.7993164 C33.1463216,57.8966471 32.664388,56.8333333 32.4501953,55.609375 L31.4404297,50.0097656 C32.3889974,49.9791667 33.3299154,49.8644206 34.2631836,49.6655273 C35.1964518,49.4666341 36.0379232,49.2218424 36.7875977,48.9311523 C37.5372721,48.6404622 38.1492513,48.3115234 38.6235352,47.9443359 C39.097819,47.5771484 39.3349609,47.2099609 39.3349609,46.8427734 C39.3349609,46.3531901 39.1360677,45.9554036 38.7382812,45.6494141 C38.1875,46.0472005 37.5449219,46.4067383 36.8105469,46.7280273 C36.0761719,47.0493164 35.3035482,47.3170573 34.4926758,47.53125 C33.6818034,47.7454427 32.870931,47.9060872 32.0600586,48.0131836 C31.2491862,48.1202799 30.491862,48.1738281 29.7880859,48.1738281 C28.4723307,48.1738281 27.3019206,48.089681 26.2768555,47.9213867 C25.2517904,47.7530924 24.3567708,47.5465495 23.5917969,47.3017578 C22.8268229,47.0569661 22.1689453,46.7892253 21.6181641,46.4985352 C21.0673828,46.2078451 20.6083984,45.9248047 20.2412109,45.6494141 C20.1188151,45.8024089 20.0117188,45.9783529 19.9199219,46.1772461 C19.828125,46.3761393 19.7822266,46.5979818 19.7822266,46.8427734 C19.7822266,47.3017578 20.0193685,47.7224935 20.4936523,48.1049805 C20.9679362,48.4874674 21.6028646,48.824056 22.3984375,49.1147461 C23.1940104,49.4054362 24.1043294,49.6425781 25.1293945,49.8261719 C26.1544596,50.0097656 27.2330729,50.1321615 28.3652344,50.1933594 C28.5488281,52.3352865 28.7553711,54.0411784 28.9848633,55.3110352 C29.2143555,56.5808919 29.4361979,57.3841146 29.6503906,57.7207031 C29.375,58.2408854 28.8318685,58.7993164 28.0209961,59.3959961 C27.2101237,59.9926758 26.2003581,60.5511068 24.9916992,61.0712891 C23.7830404,61.5914714 22.4060872,62.0198568 20.8608398,62.3564453 C19.3155924,62.6930339 17.6708984,62.8613281 15.9267578,62.8613281 C13.7542318,62.8613281 11.7041016,62.6165365 9.77636719,62.1269531 C7.84863281,61.6373698 6.1656901,60.956543 4.72753906,60.0844727 C3.28938802,59.2124023 2.14192708,58.1567383 1.28515625,56.9174805 C0.428385417,55.6782227 0,54.2936198 0,52.7636719 C0,52.4270833 0.0152994792,52.0828451 0.0458984375,51.730957 C0.0764973958,51.379069 0.137695312,51.0195312 0.229492188,50.6523438 L10.0058594,6.95703125 Z M31.578125,30.5947266 C31.2415365,28.7587891 30.9737956,27.2900391 30.7749023,26.1884766 C30.5760091,25.0869141 30.3771159,24.2530924 30.1782227,23.6870117 C29.9793294,23.120931 29.7651367,22.7537435 29.5356445,22.5854492 C29.3061523,22.4171549 29.023112,22.3330078 28.6865234,22.3330078 C28.4723307,22.3330078 28.2734375,22.3636068 28.0898438,22.4248047 C27.90625,22.4860026 27.7379557,22.5472005 27.5849609,22.6083984 L29.3291016,31.8798828 C29.4514974,32.0022786 29.6274414,32.0940755 29.8569336,32.1552734 C30.0864258,32.2164714 30.2929688,32.2470703 30.4765625,32.2470703 C30.7519531,32.2470703 31.0120443,32.2088216 31.2568359,32.1323242 C31.5016276,32.0558268 31.6852214,31.9869792 31.8076172,31.9257812 L31.578125,30.5947266 Z" id="Shape" fill="url(#linearGradient-1)"></path>
                <path d="M75.4882812,36.3320312 C76.9876302,36.3320312 78.4104818,36.485026 79.7568359,36.7910156 C81.1031901,37.0970052 82.3271484,37.601888 83.4287109,38.3056641 C84.5302734,39.0094401 85.5094401,39.9350586 86.3662109,41.0825195 C87.2229818,42.2299805 87.9267578,43.6451823 88.4775391,45.328125 C89.4873047,45.1445312 89.9921875,44.6090495 89.9921875,43.7216797 C89.9921875,43.0179036 89.7397461,42.1305339 89.2348633,41.0595703 C88.7299805,39.9886068 87.9191081,38.9482422 86.8022461,37.9384766 C85.6853841,36.9287109 84.2166341,36.0642904 82.3959961,35.3452148 C80.5753581,34.6261393 78.3645833,34.2666016 75.7636719,34.2666016 C74.2949219,34.2666016 73.0327148,34.3889974 71.9770508,34.6337891 C70.9213867,34.8785807 70.0416667,35.1386719 69.3378906,35.4140625 C68.2669271,34.8632812 67.3030599,34.1518555 66.4462891,33.2797852 C65.5895182,32.4077148 64.862793,31.4208984 64.2661133,30.3193359 C63.6694336,29.2177734 63.2104492,28.0244141 62.8891602,26.7392578 C62.5678711,25.4541016 62.4072266,24.1383464 62.4072266,22.7919922 C62.4072266,19.0283203 63.218099,15.8001302 64.8398438,13.1074219 C66.4615885,10.4147135 68.5805664,8.21923828 71.1967773,6.52099609 C73.8129883,4.82275391 76.758138,3.57584635 80.0322266,2.78027344 C83.3063151,1.98470052 86.5957031,1.58691406 89.9003906,1.58691406 C92.8684896,1.58691406 95.5611979,1.77050781 97.9785156,2.13769531 C100.395833,2.50488281 102.55306,2.98681641 104.450195,3.58349609 C106.347331,4.18017578 108.007324,4.85335286 109.430176,5.60302734 C110.853027,6.35270182 112.054036,7.11002604 113.033203,7.875 C113.369792,8.85416667 113.629883,9.92513021 113.813477,11.0878906 C113.99707,12.250651 114.088867,13.4593099 114.088867,14.7138672 C114.088867,15.5400391 114.02002,16.4044596 113.882324,17.3071289 C113.744629,18.2097982 113.538086,19.0895182 113.262695,19.9462891 C112.987305,20.8030599 112.635417,21.6139323 112.207031,22.3789062 C111.778646,23.1438802 111.273763,23.8017578 110.692383,24.3525391 C110.202799,24.0159505 109.483724,23.6411133 108.535156,23.2280273 C107.586589,22.8149414 106.507975,22.4324544 105.299316,22.0805664 C104.090658,21.7286784 102.782552,21.4303385 101.375,21.1855469 C99.9674479,20.9407552 98.5598958,20.8183594 97.1523438,20.8183594 C95.2246094,20.8183594 93.8859049,20.9560547 93.1362305,21.2314453 C92.386556,21.5068359 92.0117188,21.9352214 92.0117188,22.5166016 C92.0117188,22.8225911 92.0576172,23.0826823 92.1494141,23.296875 C92.7613932,23.1438802 93.4345703,23.0367839 94.1689453,22.9755859 C94.9033203,22.914388 95.6070964,22.8837891 96.2802734,22.8837891 C98.9117839,22.8837891 101.497396,23.2127279 104.037109,23.8706055 C106.576823,24.5284831 108.848796,25.6147461 110.853027,27.1293945 C112.857259,28.644043 114.471354,30.640625 115.695312,33.1191406 C116.919271,35.5976562 117.53125,38.6422526 117.53125,42.2529297 C117.53125,45.0986328 116.919271,47.7913411 115.695312,50.3310547 C114.471354,52.8707682 112.673665,55.1044922 110.302246,57.0322266 C107.930827,58.9599609 104.993327,60.4899089 101.489746,61.6220703 C97.9861654,62.7542318 93.9394531,63.3203125 89.3496094,63.3203125 C86.9934896,63.3203125 84.7903646,63.2361654 82.7402344,63.0678711 C80.6901042,62.8995768 78.7317708,62.6241862 76.8652344,62.2416992 C74.9986979,61.8592122 73.2086589,61.3543294 71.4951172,60.7270508 C69.7815755,60.0997721 68.0833333,59.3424479 66.4003906,58.4550781 C65.390625,56.9863281 64.5644531,55.4257812 63.921875,53.7734375 C63.2792969,52.1210938 62.9580078,50.2392578 62.9580078,48.1279297 C62.9580078,46.4755859 63.2716471,44.9303385 63.8989258,43.4921875 C64.5262044,42.0540365 65.390625,40.8071289 66.4921875,39.7514648 C67.59375,38.6958008 68.9095052,37.8619792 70.4394531,37.25 C71.969401,36.6380208 73.6523438,36.3320312 75.4882812,36.3320312 Z" id="Path" fill="url(#linearGradient-2)"></path>
                <path d="M158.412109,58.546875 C157.157552,59.6484375 155.375163,60.6429036 153.064941,61.5302734 C150.75472,62.4176432 147.977865,62.8613281 144.734375,62.8613281 C143.020833,62.8613281 141.36849,62.6777344 139.777344,62.3105469 C138.186198,61.9433594 136.786296,61.3849284 135.577637,60.6352539 C134.368978,59.8855794 133.405111,58.9370117 132.686035,57.7895508 C131.96696,56.6420898 131.607422,55.2880859 131.607422,53.7275391 L131.607422,24.1689453 L120.913086,24.1689453 C119.750326,22.4860026 118.908854,20.8107096 118.388672,19.1430664 C117.86849,17.4754232 117.608398,15.7083333 117.608398,13.8417969 C117.608398,12.4342448 117.730794,11.1567383 117.975586,10.0092773 C118.220378,8.86181641 118.541667,7.8367513 118.939453,6.93408203 C119.33724,6.03141276 119.788574,5.23583984 120.293457,4.54736328 C120.79834,3.85888672 121.310872,3.28515625 121.831055,2.82617188 L169.290039,2.82617188 C170.14681,4.14192708 170.873535,5.77897135 171.470215,7.73730469 C172.066895,9.69563802 172.365234,11.6692708 172.365234,13.6582031 C172.365234,15.5247396 172.143392,17.1235352 171.699707,18.4545898 C171.256022,19.7856445 170.644043,20.8719076 169.86377,21.7133789 C169.083496,22.5548503 168.157878,23.1744792 167.086914,23.5722656 C166.015951,23.9700521 164.837891,24.1689453 163.552734,24.1689453 L150.104492,24.1689453 C150.012695,24.413737 149.966797,24.6432292 149.966797,24.8574219 C149.966797,25.1328125 150.027995,25.3546549 150.150391,25.5229492 C150.272786,25.6912435 150.525228,25.8365885 150.907715,25.9589844 C151.290202,26.0813802 151.825684,26.1655273 152.51416,26.2114258 C153.202637,26.2573242 154.112956,26.2802734 155.245117,26.2802734 L158.412109,26.2802734 L158.412109,58.546875 Z" id="Path" fill="url(#linearGradient-3)"></path>
                <path d="M232.936523,47.9902344 C232.416341,52.671875 230.939941,56.3208008 228.507324,58.9370117 C226.074707,61.5532227 222.639974,62.8613281 218.203125,62.8613281 C216.764974,62.8613281 215.319173,62.6930339 213.865723,62.3564453 C212.412272,62.0198568 211.00472,61.4155273 209.643066,60.543457 C208.281413,59.6713867 207.003906,58.4780273 205.810547,56.9633789 C204.617188,55.4487305 203.592122,53.5133464 202.735352,51.1572266 L201.083008,46.6591797 C199.889648,46.6285807 198.925781,46.5597331 198.191406,46.4526367 C197.457031,46.3455404 196.799154,46.2460938 196.217773,46.1542969 C196.125977,46.2460938 196.041829,46.3684896 195.965332,46.5214844 C195.888835,46.6744792 195.850586,46.8886719 195.850586,47.1640625 C195.850586,47.53125 196.095378,47.8448893 196.584961,48.1049805 C197.074544,48.3650716 198.06901,48.5410156 199.568359,48.6328125 L202.18457,55.2421875 L202.18457,59.1435547 C200.471029,60.367513 198.436198,61.2931315 196.080078,61.9204102 C193.723958,62.5476888 191.245443,62.8613281 188.644531,62.8613281 C186.747396,62.8613281 185.010905,62.6700846 183.435059,62.2875977 C181.859212,61.9051107 180.489909,61.3160807 179.327148,60.5205078 C178.164388,59.7249349 177.261719,58.7381185 176.619141,57.5600586 C175.976562,56.3819987 175.655273,54.9820964 175.655273,53.3603516 L175.655273,9.75683594 C175.655273,9.0530599 176.007161,8.35693359 176.710938,7.66845703 C177.414714,6.97998047 178.378581,6.3297526 179.602539,5.71777344 C180.826497,5.10579427 182.264648,4.54736328 183.916992,4.04248047 C185.569336,3.53759766 187.336426,3.1015625 189.218262,2.734375 C191.100098,2.3671875 193.058431,2.08414714 195.093262,1.88525391 C197.128092,1.68636068 199.139974,1.58691406 201.128906,1.58691406 C205.565755,1.58691406 209.612467,2.06119792 213.269043,3.00976562 C216.925618,3.95833333 220.054362,5.37353516 222.655273,7.25537109 C225.256185,9.13720703 227.268066,11.4627279 228.690918,14.2319336 C230.11377,17.0011393 230.825195,20.2216797 230.825195,23.8935547 C230.825195,26.0354818 230.496257,28.0091146 229.838379,29.8144531 C229.180501,31.6197917 228.300781,33.226237 227.199219,34.6337891 C226.097656,36.0413411 224.80485,37.2423503 223.320801,38.2368164 C221.836751,39.2312826 220.268555,39.9886068 218.616211,40.5087891 C218.616211,41.0595703 218.769206,41.4420573 219.075195,41.65625 C219.381185,41.8704427 219.748372,41.9775391 220.176758,41.9775391 C220.605143,41.9775391 221.247721,41.8245443 222.104492,41.5185547 C222.961263,41.2125651 223.92513,40.6617839 224.996094,39.8662109 L232.936523,47.9902344 Z M201.3125,29.4013672 C201.404297,29.4625651 201.549642,29.5008138 201.748535,29.5161133 C201.947428,29.5314128 202.077474,29.5390625 202.138672,29.5390625 C202.873047,29.5390625 203.393229,29.3095703 203.699219,28.8505859 C204.005208,28.3916016 204.158203,27.6419271 204.158203,26.6015625 L204.158203,24.9492188 C204.158203,23.8782552 204.028158,23.0979818 203.768066,22.6083984 C203.507975,22.1188151 203.026042,21.8740234 202.322266,21.8740234 C202.169271,21.8740234 201.985677,21.8893229 201.771484,21.9199219 C201.557292,21.9505208 201.388997,21.9964193 201.266602,22.0576172 C201.297201,22.3024089 201.3125,22.5625 201.3125,22.8378906 C201.3125,23.1132812 201.3125,23.4039714 201.3125,23.7099609 L201.3125,29.4013672 Z" id="Shape" fill="url(#linearGradient-4)"></path>
                <path d="M245.773438,6.95703125 C246.966797,6.19205729 248.313151,5.49593099 249.8125,4.86865234 C251.311849,4.2413737 252.895345,3.71354167 254.562988,3.28515625 C256.230632,2.85677083 257.959473,2.52783203 259.749512,2.29833984 C261.539551,2.06884766 263.33724,1.95410156 265.142578,1.95410156 C267.529297,1.95410156 269.893066,2.16829427 272.233887,2.59667969 C274.574707,3.0250651 276.708984,3.69824219 278.636719,4.61621094 C280.564453,5.53417969 282.216797,6.71988932 283.59375,8.17333984 C284.970703,9.62679036 285.903971,11.3632812 286.393555,13.3828125 L296.858398,56.6650391 C295.450846,58.4703776 293.477214,59.9544271 290.9375,61.1171875 C288.397786,62.2799479 285.184896,62.8613281 281.298828,62.8613281 C279.585286,62.8613281 277.978841,62.7083333 276.479492,62.4023438 C274.980143,62.0963542 273.656738,61.6450195 272.509277,61.0483398 C271.361816,60.4516602 270.413249,59.7019857 269.663574,58.7993164 C268.9139,57.8966471 268.431966,56.8333333 268.217773,55.609375 L267.208008,50.0097656 C268.156576,49.9791667 269.097493,49.8644206 270.030762,49.6655273 C270.96403,49.4666341 271.805501,49.2218424 272.555176,48.9311523 C273.30485,48.6404622 273.916829,48.3115234 274.391113,47.9443359 C274.865397,47.5771484 275.102539,47.2099609 275.102539,46.8427734 C275.102539,46.3531901 274.903646,45.9554036 274.505859,45.6494141 C273.955078,46.0472005 273.3125,46.4067383 272.578125,46.7280273 C271.84375,47.0493164 271.071126,47.3170573 270.260254,47.53125 C269.449382,47.7454427 268.638509,47.9060872 267.827637,48.0131836 C267.016764,48.1202799 266.25944,48.1738281 265.555664,48.1738281 C264.239909,48.1738281 263.069499,48.089681 262.044434,47.9213867 C261.019368,47.7530924 260.124349,47.5465495 259.359375,47.3017578 C258.594401,47.0569661 257.936523,46.7892253 257.385742,46.4985352 C256.834961,46.2078451 256.375977,45.9248047 256.008789,45.6494141 C255.886393,45.8024089 255.779297,45.9783529 255.6875,46.1772461 C255.595703,46.3761393 255.549805,46.5979818 255.549805,46.8427734 C255.549805,47.3017578 255.786947,47.7224935 256.26123,48.1049805 C256.735514,48.4874674 257.370443,48.824056 258.166016,49.1147461 C258.961589,49.4054362 259.871908,49.6425781 260.896973,49.8261719 C261.922038,50.0097656 263.000651,50.1321615 264.132812,50.1933594 C264.316406,52.3352865 264.522949,54.0411784 264.752441,55.3110352 C264.981934,56.5808919 265.203776,57.3841146 265.417969,57.7207031 C265.142578,58.2408854 264.599447,58.7993164 263.788574,59.3959961 C262.977702,59.9926758 261.967936,60.5511068 260.759277,61.0712891 C259.550618,61.5914714 258.173665,62.0198568 256.628418,62.3564453 C255.083171,62.6930339 253.438477,62.8613281 251.694336,62.8613281 C249.52181,62.8613281 247.47168,62.6165365 245.543945,62.1269531 C243.616211,61.6373698 241.933268,60.956543 240.495117,60.0844727 C239.056966,59.2124023 237.909505,58.1567383 237.052734,56.9174805 C236.195964,55.6782227 235.767578,54.2936198 235.767578,52.7636719 C235.767578,52.4270833 235.782878,52.0828451 235.813477,51.730957 C235.844076,51.379069 235.905273,51.0195312 235.99707,50.6523438 L245.773438,6.95703125 Z M267.345703,30.5947266 C267.009115,28.7587891 266.741374,27.2900391 266.54248,26.1884766 C266.343587,25.0869141 266.144694,24.2530924 265.945801,23.6870117 C265.746908,23.120931 265.532715,22.7537435 265.303223,22.5854492 C265.07373,22.4171549 264.79069,22.3330078 264.454102,22.3330078 C264.239909,22.3330078 264.041016,22.3636068 263.857422,22.4248047 C263.673828,22.4860026 263.505534,22.5472005 263.352539,22.6083984 L265.09668,31.8798828 C265.219076,32.0022786 265.39502,32.0940755 265.624512,32.1552734 C265.854004,32.2164714 266.060547,32.2470703 266.244141,32.2470703 C266.519531,32.2470703 266.779622,32.2088216 267.024414,32.1323242 C267.269206,32.0558268 267.452799,31.9869792 267.575195,31.9257812 L267.345703,30.5947266 Z" id="Shape" fill="url(#linearGradient-1)"></path>
                <path d="M310.429688,60.0810547 C307.125,60.0810547 304.524089,59.2013346 302.626953,57.4418945 C300.729818,55.6824544 299.78125,52.9361979 299.78125,49.203125 L299.78125,4.31445312 C301.402995,2.9375 303.391927,1.8741862 305.748047,1.12451172 C308.104167,0.37483724 310.521484,0 313,0 C314.713542,0 316.388835,0.229492188 318.025879,0.688476562 C319.662923,1.14746094 321.116374,1.84358724 322.38623,2.77685547 C323.656087,3.7101237 324.673503,4.89583333 325.438477,6.33398438 C326.203451,7.77213542 326.585938,9.45507812 326.585938,11.3828125 L326.585938,36.4892578 C325.820964,36.5504557 325.002441,36.7034505 324.130371,36.9482422 C323.258301,37.1930339 322.447428,37.4990234 321.697754,37.8662109 C320.948079,38.2333984 320.320801,38.6388346 319.815918,39.0825195 C319.311035,39.5262044 319.058594,39.9775391 319.058594,40.4365234 C319.058594,40.773112 319.142741,41.0408529 319.311035,41.2397461 C319.479329,41.4386393 319.685872,41.6145833 319.930664,41.7675781 C321.644206,40.3294271 323.602539,39.3349609 325.805664,38.7841797 C328.008789,38.2333984 330.548503,37.9580078 333.424805,37.9580078 L344.302734,37.9580078 C344.761719,38.7535807 345.174805,39.5874023 345.541992,40.4594727 C345.90918,41.331543 346.222819,42.2189128 346.48291,43.121582 C346.743001,44.0242513 346.949544,44.9192708 347.102539,45.8066406 C347.255534,46.6940104 347.332031,47.5201823 347.332031,48.2851562 C347.332031,49.3867188 347.247884,50.5112305 347.07959,51.6586914 C346.911296,52.8061523 346.674154,53.9000651 346.368164,54.9404297 C346.062174,55.9807943 345.694987,56.9446615 345.266602,57.8320312 C344.838216,58.719401 344.348633,59.4690755 343.797852,60.0810547 L310.429688,60.0810547 Z" id="Path" fill="url(#linearGradient-5)"></path>
            </g>
        </g>
    </g>
</svg>