<svg width="200" height="161" viewBox="0 0 200 161" fill="none" xmlns="http://www.w3.org/2000/svg"><g clip-path="url(#clip0_1135_3265)"><path class="white" d="M109.2 3.90002L77 18L40.2 65.3L3.90002 85.2C3.90002 85.2 33.3 153.6 89 154.9C163.6 156.7 195.9 120.5 195.9 120.5C195.9 120.5 149.1 85 147.1 81C145.1 77 109.2 3.90002 109.2 3.90002Z" fill="white"></path><path fill-rule="evenodd" clip-rule="evenodd" d="M36.6202 64.1885C53.7276 59.0729 75.4884 56.1954 99.3887 59.8447C101.518 60.1698 102.98 62.1594 102.655 64.2886C102.33 66.4179 100.341 67.8804 98.2113 67.5553C75.6116 64.1046 55.0224 66.827 38.8548 71.6615C22.5501 76.537 11.1362 83.4354 6.67114 87.9442C5.15554 89.4747 2.68623 89.4867 1.15577 87.9711C-0.374687 86.4555 -0.386733 83.9862 1.12886 82.4557C6.86384 76.6645 19.6499 69.263 36.6202 64.1885Z" fill="currentColor"></path><path class="white" d="M141.8 149.6L77 18L17.8 106" fill="white"></path><path fill-rule="evenodd" clip-rule="evenodd" d="M77.2623 14.1088C78.6508 14.2024 79.8841 15.0287 80.4988 16.2772L145.299 147.877C146.25 149.81 145.455 152.147 143.523 153.099C141.59 154.05 139.253 153.255 138.301 151.323L76.4765 25.7653L21.0359 108.177C19.8337 109.964 17.4103 110.438 15.6231 109.236C13.836 108.034 13.3618 105.61 14.5641 103.823L73.7641 15.8231C74.5408 14.6685 75.8739 14.0152 77.2623 14.1088Z" fill="currentColor"></path><path fill-rule="evenodd" clip-rule="evenodd" d="M107.636 0.32751C109.547 -0.509674 111.78 0.306723 112.7 2.17987L175.9 130.78C176.85 132.713 176.053 135.05 174.12 136C172.187 136.95 169.85 136.153 168.9 134.22L107.346 8.96945L78.5643 21.5725C76.5913 22.4365 74.2915 21.5374 73.4275 19.5644C72.5635 17.5913 73.4626 15.2915 75.4356 14.4275L107.636 0.32751Z" fill="currentColor"></path><path class="dots" d="M111.8 51.2C114.672 51.2 117 48.8719 117 46C117 43.1281 114.672 40.8 111.8 40.8C108.928 40.8 106.6 43.1281 106.6 46C106.6 48.8719 108.928 51.2 111.8 51.2Z" fill="currentColor"></path><path class="dots" d="M128.2 85.2C131.072 85.2 133.4 82.8719 133.4 80C133.4 77.1281 131.072 74.8 128.2 74.8C125.328 74.8 123 77.1281 123 80C123 82.8719 125.328 85.2 128.2 85.2Z" fill="currentColor"></path><path class="dots" d="M144.5 119.1C147.372 119.1 149.7 116.772 149.7 113.9C149.7 111.028 147.372 108.7 144.5 108.7C141.628 108.7 139.3 111.028 139.3 113.9C139.3 116.772 141.628 119.1 144.5 119.1Z" fill="currentColor"></path><path class="color-filler" d="M105.6 153.9C94.2 146.1 77 127.8 77 127.8C77 127.8 93.4 102.7 88 83.7C82.6 64.7 74.4 62.7 69.6 66C57.1 74.8 59.8 104.5 54 107C48.2 109.5 29.5 123.9 29.5 123.9C29.5 123.9 73.6 157 101.4 157.9C129.2 158.8 105.6 153.9 105.6 153.9Z" fill="#13EA5B"></path><path fill-rule="evenodd" clip-rule="evenodd" d="M143.722 79.0511C144.798 77.1854 147.183 76.5455 149.049 77.6219C164.936 86.7877 183.289 100.34 198.822 117.917C200.249 119.531 200.097 121.996 198.483 123.422C196.869 124.849 194.404 124.697 192.978 123.083C178.111 106.26 160.464 93.2124 145.151 84.3781C143.285 83.3018 142.646 80.9168 143.722 79.0511Z" fill="currentColor"></path><path fill-rule="evenodd" clip-rule="evenodd" d="M3.50459 81.3201C5.6474 81.1017 7.56152 82.6618 7.7799 84.8046C7.82133 85.2112 8.05304 86.1513 8.70322 87.6944C9.32541 89.1711 10.2413 90.9921 11.4614 93.0916C13.8996 97.2871 17.4631 102.441 22.0715 107.96C31.2965 119.006 44.5494 131.321 61.0399 140.3C77.5012 149.262 97.1283 154.871 119.249 152.672C141.362 150.474 166.316 140.437 193.38 117.524C195.024 116.132 197.485 116.336 198.876 117.98C200.268 119.624 200.064 122.085 198.42 123.477C170.384 147.213 143.988 158.051 120.02 160.434C96.0592 162.816 74.8737 156.713 57.3101 147.15C39.7756 137.604 25.7909 124.582 16.0847 112.959C11.2275 107.143 7.40198 101.63 4.7175 97.0108C3.3763 94.7029 2.29743 92.5795 1.51522 90.7231C0.76101 88.9331 0.178658 87.1514 0.0200914 85.5954C-0.198285 83.4526 1.36178 81.5385 3.50459 81.3201Z" fill="currentColor"></path><path class="color-border-green" fill-rule="evenodd" clip-rule="evenodd" d="M69.5954 72.3763C67.366 74.611 65.2162 77.8446 63.5693 81.5716C62.0479 85.041 61.2638 88.4661 60.5079 92.1133C60.4394 92.4438 60.3709 92.7776 60.3018 93.1145C59.6288 96.3954 58.8977 99.959 57.5483 103.436C54.3906 111.573 48.0907 118.733 33.2332 125.086C31.2528 125.933 28.9608 125.014 28.114 123.033C27.2673 121.053 28.1863 118.761 30.1668 117.914C43.6093 112.167 48.0595 106.327 50.2767 100.614C51.3762 97.7809 51.9784 94.8578 52.6767 91.4681C52.7402 91.1595 52.8046 90.8471 52.8702 90.5305C53.6359 86.8356 54.5514 82.7121 56.4286 78.4332L56.4325 78.4242C58.3855 74.003 61.0349 69.9131 64.0734 66.8674C67.0244 63.9095 70.8405 61.4556 75.0928 61.475C79.7104 61.4961 83.4169 64.3798 85.9554 69.0545C88.4394 73.6287 90.1177 80.3757 90.8865 89.5752C92.4077 107.779 89.7971 118.177 84.8719 123.915C83.0446 126.044 81.0184 127.397 79.0217 128.25C79.9826 128.877 81.0365 129.574 82.1937 130.354C90.1164 135.699 101.025 143.826 108.835 154.38C110.116 156.111 109.751 158.554 108.02 159.835C106.288 161.116 103.846 160.751 102.565 159.02C95.5749 149.574 85.5837 142.051 77.8314 136.821C76.0036 135.587 74.1586 134.392 72.5433 133.345C70.962 132.32 69.6007 131.438 68.691 130.803C68.1802 130.446 67.6821 130.081 67.2589 129.727C66.9469 129.466 66.2614 128.882 65.7937 128.068C65.5591 127.659 65.0568 126.646 65.2675 125.311C65.5179 123.724 66.5743 122.776 67.4008 122.336C68.1123 121.957 68.7848 121.861 69.1219 121.827C69.516 121.786 69.888 121.79 70.1916 121.805C73.0893 121.947 76.3707 121.844 78.9532 118.835C81.7529 115.573 84.5923 107.921 83.1136 90.2248C82.3823 81.4743 80.8356 75.9713 79.1009 72.7768C77.4207 69.6827 75.9146 69.2789 75.0572 69.2749C73.8345 69.2694 71.9132 70.053 69.5954 72.3763ZM72.1505 123.643C72.1516 123.643 72.166 123.656 72.1901 123.681C72.1615 123.655 72.1494 123.643 72.1505 123.643Z" fill="currentColor"></path><path class="color-filler" d="M66.6 109.7C68.5 101.3 101.9 93.3 100.5 120.7C99.1 148.1 58.4 145.8 66.6 109.7Z" fill="#FFF800"></path><path class="color-border-yellow" fill-rule="evenodd" clip-rule="evenodd" d="M70.4055 110.559C70.4028 110.566 70.4026 110.566 70.4039 110.56L70.4031 110.564C68.5059 118.916 69.5473 124.798 71.6552 128.617C73.7501 132.413 77.0871 134.541 80.6345 135.173C87.6662 136.427 96.0258 131.839 96.6051 120.501C96.9141 114.454 95.2978 110.998 93.2996 108.995C91.2313 106.921 88.1829 105.83 84.6138 105.671C81.0466 105.512 77.3377 106.313 74.4814 107.585C73.058 108.218 71.9689 108.915 71.2478 109.554C70.5772 110.149 70.4252 110.512 70.4055 110.559ZM98.8223 103.487C102.752 107.427 104.786 113.246 104.395 120.899C103.574 136.961 90.8838 144.923 79.2655 142.852C73.4879 141.822 68.0999 138.318 64.8261 132.386C61.5652 126.477 60.5941 118.534 62.7969 108.836C63.2834 106.69 64.651 104.98 66.0713 103.72C67.535 102.421 69.3561 101.328 71.3092 100.459C75.2061 98.7242 80.1159 97.6629 84.9612 97.8788C89.8046 98.0947 94.9625 99.6165 98.8223 103.487Z" fill="currentColor"></path></g><defs><clipPath id="clip0_1135_3265"><rect class="white" width="199.8" height="161" fill="white"></rect></clipPath></defs></svg>